{"title":"Zoo.S01E05.HDTV.480p.x264.AAC-VYTO [P2PDL]","uid":12170254,"size":157225049,"categoryP":"video","categoryS":"hd___tv_shows","magnet":"?xt=urn:btih:48050e68babead8018f61229dc7e2e80f487216e&amp;dn=Zoo.S01E05.HDTV.480p.x264.AAC-VYTO+%5BP2PDL%5D&amp;tr=udp%3A%2F%2Ftracker.openbittorrent.com%3A80&amp;tr=udp%3A%2F%2Fopen.demonii.com%3A1337&amp;tr=udp%3A%2F%2Ftracker.coppersurfer.tk%3A6969&amp;tr=udp%3A%2F%2Fexodus.desync.com%3A6969","seeders":4,"leechers":0,"uploader":"ValidusVyto","files":6,"time":1438152538,"description":"____    ____ ____    ____ .___________.  ______   \n     /   /      /   / |           | /  __    \n    /   /      /   /  `---|  |----`|  |  |  | \n        /     _    _/       |  |     |  |  |  | \n       /        |  |         |  |     |  `--'  | \n    __/         |__|         |__|      ______/  \n                                                  \nPresenting Small Encodes with quality for years!\n                                                                                                   \n                                                                                                   \n\nZoo.S01E05.HDTV.480p.x264.AA-VYTO\n\n\nGeneral\nFormat                         : MPEG-4\nFile size                      : 145 MiB\nDuration                       : 43mn 15s\nOverall bit rate               : 470 Kbps\n\nVideo\nFormat                         : AVC\nBit rate                       : 435 Kbps\nWidth                          : 720 pixels\nHeight                         : 400 pixels\nDisplay aspect ratio           : 16:9\nFrame rate mode                : Constant\nFrame rate                     : 23.976 fps\nBit depth                      : 8 bits\nStream size                    : 135 MiB (92%)\nWriting library                : x264 core 146 r2538 121396c\n\nAudio\nFormat                         : AAC\nBit rate mode                  : Variable\nBit rate                       : 32.0 Kbps\nChannel(s)                     : 2 channels\nChannel positions              : Front: L R\nSampling rate                  : 48.0 KHz\nStream size                    : 9.90 MiB (7%)\n\n\nScreenshots:\n &lt;a href=&quot;\nhttp://ititli.com/1x&quot; rel=&quot;nofollow&quot; target=&quot;_NEW&quot;&gt;\nhttp://ititli.com/1x&lt;/a&gt; &lt;a href=&quot;\nhttp://ititli.com/17&quot; rel=&quot;nofollow&quot; target=&quot;_NEW&quot;&gt;\nhttp://ititli.com/17&lt;/a&gt; &lt;a href=&quot;\nhttp://ititli.com/1C&quot; rel=&quot;nofollow&quot; target=&quot;_NEW&quot;&gt;\nhttp://ititli.com/1C&lt;/a&gt; &lt;a href=&quot;\nhttp://ititli.com/1F&quot; rel=&quot;nofollow&quot; target=&quot;_NEW&quot;&gt;\nhttp://ititli.com/1F&lt;/a&gt; &lt;a href=&quot;\nhttp://ititli.com/1J&quot; rel=&quot;nofollow&quot; target=&quot;_NEW&quot;&gt;\nhttp://ititli.com/1J&lt;/a&gt; &lt;a href=&quot;\nhttp://ititli.com/15&quot; rel=&quot;nofollow&quot; target=&quot;_NEW&quot;&gt;\nhttp://ititli.com/15&lt;/a&gt; &lt;a href=&quot;\nhttp://ititli.com/1B&quot; rel=&quot;nofollow&quot; target=&quot;_NEW&quot;&gt;\nhttp://ititli.com/1B&lt;/a&gt; &lt;a href=&quot;\nhttp://ititli.com/1N&quot; rel=&quot;nofollow&quot; target=&quot;_NEW&quot;&gt;\nhttp://ititli.com/1N&lt;/a&gt; &lt;a href=&quot;\nhttp://ititli.com/1P&quot; rel=&quot;nofollow&quot; target=&quot;_NEW&quot;&gt;\nhttp://ititli.com/1P&lt;/a&gt; &lt;a href=&quot;\nhttp://ititli.com/1f&quot; rel=&quot;nofollow&quot; target=&quot;_NEW&quot;&gt;\nhttp://ititli.com/1f&lt;/a&gt; &lt;a href=&quot;\nhttp://ititli.com/1u&quot; rel=&quot;nofollow&quot; target=&quot;_NEW&quot;&gt;\nhttp://ititli.com/1u&lt;/a&gt; &lt;a href=&quot;\nhttp://ititli.com/1v&quot; rel=&quot;nofollow&quot; target=&quot;_NEW&quot;&gt;\nhttp://ititli.com/1v&lt;/a&gt;\n\n----------------------------------------------------------------------------------------------------\n\n\nEncoder Notes: Looking For Early Access To Anything You Can Provide DVDScr, R5, DVDR, BluRay, Direct\nAudio, Music Releases and Seedboxes. If You Got anything to offer please contact us.\n\nSupport us by donating BC - 1FgwdzPsd1y25Gea8wP1qni35uGCtmkRCD","torrent":{"xt":"urn:btih:48050e68babead8018f61229dc7e2e80f487216e","amp;dn":"Zoo.S01E05.HDTV.480p.x264.AAC-VYTO+%5BP2PDL%5D","amp;tr":["udp%3A%2F%2Ftracker.openbittorrent.com%3A80","udp%3A%2F%2Fopen.demonii.com%3A1337","udp%3A%2F%2Ftracker.coppersurfer.tk%3A6969","udp%3A%2F%2Fexodus.desync.com%3A6969"],"infoHash":"48050e68babead8018f61229dc7e2e80f487216e","infoHashBuffer":{"type":"Buffer","data":[72,5,14,104,186,190,173,128,24,246,18,41,220,126,46,128,244,135,33,110]},"announce":[],"urlList":[]}}